<svg xmlns="http://www.w3.org/2000/svg" data-name="Layer 1" viewBox="0 0 24 24"><path d="M4,10a2,2,0,1,0,2,2A2,2,0,0,0,4,10Zm0,3a1,1,0,1,1,1-1A1,1,0,0,1,4,13Zm8.5-3A5.5,5.5,0,1,0,18,15.5,5.51,5.51,0,0,0,12.5,10Zm0,10A4.5,4.5,0,1,1,17,15.5,4.5,4.5,0,0,1,12.5,20Zm10-12H22V7.5A1.5,1.5,0,0,0,20.5,6h-1A1.5,1.5,0,0,0,18,7.5V8h-.78a.5.5,0,0,1-.47-.34L16.2,6a1.5,1.5,0,0,0-1.42-1H10.22A1.5,1.5,0,0,0,8.8,6L8.25,7.66A.5.5,0,0,1,7.78,8H7V7.5A1.5,1.5,0,0,0,5.5,6h-2A1.5,1.5,0,0,0,2,7.5V8H1.5A1.5,1.5,0,0,0,0,9.5v12A1.5,1.5,0,0,0,1.5,23h21A1.5,1.5,0,0,0,24,21.5V9.5A1.5,1.5,0,0,0,22.5,8ZM19,7.5a.5.5,0,0,1,.5-.5h1a.5.5,0,0,1,.5.5V8H19ZM3,7.5A.5.5,0,0,1,3.5,7h2a.5.5,0,0,1,.5.5V8H3Zm20,14a.5.5,0,0,1-.5.5H1.5a.5.5,0,0,1-.5-.5V9.5A.5.5,0,0,1,1.5,9H7.78A1.5,1.5,0,0,0,9.2,8l.54-1.63A.5.5,0,0,1,10.22,6h4.56a.5.5,0,0,1,.47.34L15.8,8a1.5,1.5,0,0,0,1.42,1H22.5a.5.5,0,0,1,.5.5ZM11.5,8h2a.5.5,0,0,0,0-1h-2a.5.5,0,0,0,0,1Zm1,4A3.5,3.5,0,1,0,16,15.5,3.5,3.5,0,0,0,12.5,12Zm0,6A2.5,2.5,0,1,1,15,15.5,2.5,2.5,0,0,1,12.5,18Zm7-8a.5.5,0,1,0,.5.5A.5.5,0,0,0,19.5,10Z"/></svg>