<svg xmlns="http://www.w3.org/2000/svg" enable-background="new 0 0 64 64" viewBox="0 0 64 64"><path d="M16 17c2.2 0 4-1.8 4-4v-2c0-2.2-1.8-4-4-4s-4 1.8-4 4v2C12 15.2 13.8 17 16 17zM14 11c0-1.1.9-2 2-2s2 .9 2 2v2c0 1.1-.9 2-2 2s-2-.9-2-2V11zM62 29c-5.7.8-12.7 7.5-17.3 12.1-.4.4-.3 1 .1 1.4.6.5 1.2.1 1.4-.1C56.4 32 60.9 31 62 31c.6 0 1-.4 1-1S62.5 28.9 62 29zM42.6 43.7c-.7.8-1.7 1.3-2.7 1.3-1.4 0-2.8.6-3.9 1.6l-1.1 1.1-1.2-17.2C34.4 30 35 29.1 35 28c0-1.2-.7-2.3-1.8-2.7L33 21.9c0-.6-.5-1-1.1-.9-.6 0-1 .5-.9 1.1l.2 2.9h-4.9l-6.1-4.6C19 19.5 17.5 19 16 19h-5.7c-.6 0-1 .4-1 1s.4 1 1 1H12c-.6.8-1 1.9-1 3v1H7c-1.1 0-2-.9-2-2s.9-2 2-2c.6 0 1-.4 1-1s-.4-1-1-1c-2.2 0-4 1.8-4 4 0 1.2.5 2.3 1.4 3C3.5 26.7 3 27.8 3 29v4c0 2.2 1.8 4 4 4h3.7L9.5 51.6c0 .5.4 1 .9 1.1 0 0 .9.1 1.1-.9l1.1-13.3c.9 1.5 4.1 2.4 4.1 2.4l-1.4 14.2c-.1 1-1 1.8-2 1.8-.6 0-2-.5-2-2.2 0-.6-.4-1-.9-1.1-.6-.1-1 .4-1.1.9-.1.9.2 1.8.7 2.6-.7.2-1.5.4-2.1.8l-6.3 3.1c-.5.2-.7.8-.4 1.3.4.8 1.2.5 1.3.4l6.3-3.1c1-.5 2.1-.8 3.2-.8h4.4c1.3 0 2.6-.5 3.5-1.5 1.6-1.6 3.8-2.5 6.1-2.5 2.8 0 5.6-1.1 7.5-3.1l3.9-3.9c.6-.6 1.5-1 2.5-1 1.7 0 3.2-.7 4.3-2.1.3-.4.3-1.1-.2-1.4C43.5 43.2 42.9 43.3 42.6 43.7zM10.9 35H7c-1.1 0-2-.9-2-2v-4c0-1.1.9-2 2-2h4L10.9 35zM18.5 56.1c-.5.5-1.1.7-1.7.8.3-.5.5-1 .5-1.6l1.4-13.7 2.4.9V51c0 1.1.4 2 1.1 2.8C20.8 54.3 19.5 55.1 18.5 56.1zM27 51c0 1.2-1.1 2.2-2.3 2-1-.2-1.7-1.1-1.7-2.1l0-8.5c0-.6-.4-1.2-1-1.4l-6.1-2.4c-.9-.4-1.7-1-2.2-1.8 1.5-.4 3.6-1.5 5.3-3.9 0 0-.3 2.1.5 2.1l6.1 3.1c.8.4 1.4 1.3 1.4 2.2V51zM28.7 52.6c.2-.5.3-1 .3-1.6V40.1c0-1.7-1-3.2-2.5-4L21 33.4V29c0 0 2 2 4.5 2h6.1L33 49.6C33 49.6 31.4 52 28.7 52.6zM32 29h-6.5c-.8 0-1.5-.2-2.1-.7l-4.8-3.6c-.4-.3-1.1-.2-1.4.2-.3.4-.2 1.1.2 1.4l1.6 1.2c0 0-1.2 5.9-6 7.3 0-.2 0-10.8 0-10.8 0-1.7 1.3-3 3-3 1.1 0 2.1.3 3 1l6.7 5H32c.6 0 1 .4 1 1S32.6 29 32 29zM42 11h10c1.7 0 3-1.3 3-3 0-1.3-.9-2.5-2.1-2.9C52.5 2.8 50.5 1 48 1c-1.8 0-3.5 1-4.4 2.6-.3.5-.1 1.1.4 1.4s1.1.1 1.4-.4C45.9 3.6 46.9 3 48 3c1.7 0 3 1.3 3 3 0 .6.4 1 1 1 .6 0 1 .4 1 1s-.4 1-1 1H42c-.6 0-1-.4-1-1s.4-1 1-1c.6 0 1-.4 1-1s-.4-1-1-1c-1.7 0-3 1.3-3 3S40.3 11 42 11z"/><path d="M56.9 7.1C58.2 7.6 59 8.7 59 10c0 .6.4 1 1 1 .6 0 1 .4 1 1s-.4 1-1 1H50c-.3 0-.5-.1-.7-.3-.4-.4-1-.4-1.4.1-.4.4-.3 1 .1 1.4.6.5 1.3.8 2 .8h10c1.7 0 3-1.3 3-3 0-1.3-.9-2.5-2.1-2.9-.3-1.8-1.6-3.3-3.4-3.9-.5-.2-1.1.1-1.3.6C56.1 6.4 56.4 7 56.9 7.1zM7 32c0 .6.4 1 1 1s1-.4 1-1v-2c0-.6-.4-1-1-1s-1 .4-1 1V32z"/></svg>